<?xml version="1.0" encoding="utf-8"?>
<!-- Generator: Adobe Illustrator 23.0.1, SVG Export Plug-In . SVG Version: 6.00 Build 0)  -->
<svg version="1.1" id="Layer_1" xmlns="http://www.w3.org/2000/svg" xmlns:xlink="http://www.w3.org/1999/xlink" x="0px" y="0px"
	 viewBox="0 0 200 200" style="enable-background:new 0 0 200 200;" xml:space="preserve">
<style type="text/css">
	.st0{fill:#FFC7D6;}
	.st1{fill:#BFBFBF;}
	.st2{fill:#FFFFFF;}
	.st3{fill:none;stroke:#000000;stroke-linecap:round;stroke-miterlimit:10;}
	.st4{fill:#FF8AB9;stroke:#FF8AB9;stroke-miterlimit:10;}
	.st5{stroke:#000000;stroke-miterlimit:10;}
	.st6{fill:#FFFFFF;stroke:#000000;stroke-miterlimit:10;}
</style>
<path class="st0" d="M130.9,114.4l13.2-13.6c0,0-6.5-20.4-12.1-20.9s-7.1,30.8-7.1,30.8L130.9,114.4z"/>
<path class="st1" d="M124.8,110.7c0,0,0.5-22,7.1-30.8c0,0-7-3.9-10.9,29.1L124.8,110.7z"/>
<path class="st2" d="M166.6,75.8c-5.9-15.4-18-23.4-34-21.5C119.1,55.9,115.2,73,114.4,87c-24.3-0.1-33,17-34,19.1
	c0.5-7,2.8-44.3-7.2-63.1c-11-20.8-28.5-30.8-38.1-28.7c-9.6,2-11.1,19,1.7,54.2s26.7,47.9,26.7,47.9l0,0
	c-8.1,6.8-13.1,15.9-13.1,25.9c0,15.8,12.4,26.8,29.9,31.2c-12.2,6.1-17.2,17.7-20.6,26.2h76.5c0,0-5.6-17.7-20.1-26.1
	c17.7-4.3,30.2-15.4,30.2-31.3c0-10.6-5.5-20.2-14.4-27l12.8-12.9l0,0c3.6,7.1,7.8,14,11.4,15.8C164.3,122.2,176.2,100.9,166.6,75.8
	z M114.7,105.7c0,0,0,0.4,0,1c-2.1-0.6-4.3-1.1-6.5-1.4c-0.2,0-0.3-0.1-0.5-0.1c0.6-2.9,3.6-4.9,6.5-6.2
	C114.4,103.1,114.7,105.7,114.7,105.7z M114.2,97.2c-6.4,1.3-11.5,5.9-11.5,5.9c-2.6-4.4,7.5-10.1,11.5-12.1
	C114.2,93.2,114.2,95.3,114.2,97.2z M114.3,87.9c0,0.8-0.1,1.6-0.1,2.5c-13.2,2.4-17.8,9.9-17.8,9.9
	C95.4,94.1,108.2,89.7,114.3,87.9z M144.1,100.8l-13.2,13.6l0,0c-2.9-2.1-6.2-4-9.8-5.5c0-0.3,0.1-0.6,0.1-0.9
	c5.3-43.7,15.7-23.6,15.7-23.6S140,92.6,144.1,100.8L144.1,100.8z"/>
<path d="M100.1,160.6c0,0,4.8-2.7,4.6-3.7c-0.1-1-0.4-2.1-4.6-2.1s-4.8,1.1-4.6,2C95.7,158.2,100.1,160.6,100.1,160.6z"/>
<path class="st3" d="M91.5,160.6c0,0,3.6,9.6,8.6,0c0.8-1.5,4.3,10.2,8.7,0"/>
<ellipse class="st4" cx="78.3" cy="159.5" rx="7.9" ry="4.1"/>
<ellipse class="st4" cx="122.6" cy="159.5" rx="7.9" ry="4.1"/>
<g id="eyes">
	<path class="st5" d="M87.5,151.4c0,0-3.3-0.7-5.3-0.7s-5,0.7-5,0.7c-1.8-7,2.1-11.4,5-11.4S88.3,142.5,87.5,151.4z"/>
	<path class="st5" d="M123.4,151.4c0,0-3.3-0.7-5.3-0.7s-5,0.7-5,0.7c-1.8-7,2.1-11.4,5-11.4S124.3,142.5,123.4,151.4z"/>
	<circle class="st6" cx="84" cy="143" r="1.2"/>
	<circle class="st6" cx="120" cy="143" r="1.2"/>
</g>
<path class="st1" d="M67.8,113.3l7.4-4c0,0,6.1-80.5-31.9-81.4C22.7,27.4,67.8,113.3,67.8,113.3z"/>
<path class="st0" d="M67.8,113.3l7.4-4c0,0,0-65.5-24.6-66.3C37.3,42.6,67.8,113.3,67.8,113.3z"/>
</svg>
