<?xml version="1.0" encoding="utf-8"?>
<!-- Generator: Adobe Illustrator 23.0.1, SVG Export Plug-In . SVG Version: 6.00 Build 0)  -->
<svg version="1.1" id="Layer_1" xmlns="http://www.w3.org/2000/svg" xmlns:xlink="http://www.w3.org/1999/xlink" x="0px" y="0px"
	 viewBox="0 0 50 50" style="enable-background:new 0 0 50 50;" xml:space="preserve">
<path d="M31.9,18.1c-0.6,0-1.2,0.5-1.2,1.2v22.1c0,0.6,0.5,1.2,1.2,1.2s1.2-0.5,1.2-1.2V19.3C33.1,18.6,32.5,18.1,31.9,18.1z"/>
<path d="M18.1,18.1c-0.6,0-1.2,0.5-1.2,1.2v22.1c0,0.6,0.5,1.2,1.2,1.2s1.2-0.5,1.2-1.2V19.3C19.3,18.6,18.7,18.1,18.1,18.1z"/>
<path d="M8,14.9v28.8c0,1.7,0.6,3.3,1.7,4.5c1.1,1.2,2.6,1.8,4.2,1.8h22.2c1.6,0,3.1-0.7,4.2-1.8c1.1-1.1,1.7-2.8,1.7-4.5V14.9
	c2.2-0.6,3.6-2.7,3.3-4.9c-0.3-2.2-2.2-3.9-4.4-3.9h-6V4.6c0-1.2-0.5-2.4-1.4-3.3C32.6,0.5,31.4,0,30.2,0H19.8
	c-1.2,0-2.4,0.5-3.3,1.3c-0.9,0.9-1.4,2.1-1.4,3.3v1.5h-6C6.9,6.1,5,7.8,4.7,10C4.4,12.2,5.8,14.3,8,14.9z M36.1,47.7H13.9
	c-2,0-3.6-1.7-3.6-3.9V15h29.3v28.7C39.6,45.9,38.1,47.7,36.1,47.7z M17.5,4.6c0-0.6,0.2-1.2,0.7-1.6c0.4-0.4,1-0.7,1.6-0.7h10.4
	c0.6,0,1.2,0.2,1.6,0.7c0.4,0.4,0.7,1,0.7,1.6v1.5h-15V4.6z M9.2,8.4h31.7c1.2,0,2.1,0.9,2.1,2.1s-0.9,2.1-2.1,2.1H9.2
	C8,12.6,7,11.7,7,10.5S8,8.4,9.2,8.4z"/>
<path d="M25,18.1c-0.6,0-1.2,0.5-1.2,1.2v22.1c0,0.6,0.5,1.2,1.2,1.2s1.2-0.5,1.2-1.2V19.3C26.2,18.6,25.6,18.1,25,18.1z"/>
</svg>
